<?xml version="1.0" encoding="UTF-8"?>
<svg id="Layer_2" data-name="Layer 2" xmlns="http://www.w3.org/2000/svg" viewBox="0 0 2266.93 1285.89">
  <defs>
    <style>
      .cls-1 {
        fill: #fffdeb;
      }
    </style>
  </defs>
  <g id="Layer_1-2" data-name="Layer 1">
    <path class="cls-1" d="M0,0v1285.89h2266.93V0H0ZM1894.62,816.6c0,134.8-201.44,244.09-449.93,244.09-120.76,0-230.4-25.81-311.22-67.82-80.82,42.01-190.46,67.82-311.22,67.82-248.49,0-449.93-109.28-449.93-244.09,0-67.95,51.2-129.4,133.79-173.66-82.59-44.25-133.79-105.71-133.79-173.66,0-134.8,201.44-244.09,449.93-244.09,120.76,0,230.4,25.81,311.22,67.82,80.82-42.01,190.46-67.82,311.22-67.82,248.49,0,449.93,109.28,449.93,244.09,0,67.95-51.2,129.4-133.79,173.66,82.59,44.25,133.79,105.71,133.79,173.66Z"/>
  </g>
</svg>