<?xml version="1.0" encoding="UTF-8"?>
<svg id="Layer_1" xmlns="http://www.w3.org/2000/svg" version="1.1" viewBox="0 0 1920 1080">
  <!-- Generator: Adobe Illustrator 29.1.0, SVG Export Plug-In . SVG Version: 2.1.0 Build 142)  -->
  <defs>
    <style>
      .st0 {
        fill: #fffdeb;
      }
    </style>
  </defs>
  <path class="st0" d="M-344.6-185.3v1450.6h2609.1V-185.3H-344.6ZM1836,735.9c0,152.1-231.8,275.4-517.8,275.4s-265.2-29.1-358.2-76.5c-93,47.4-219.2,76.5-358.2,76.5-286,0-517.8-123.3-517.8-275.4s58.9-146,154-195.9c-95.1-49.9-154-119.2-154-195.9,0-152.1,231.8-275.4,517.8-275.4s265.2,29.1,358.2,76.5c93-47.4,219.2-76.5,358.2-76.5,286,0,517.8,123.3,517.8,275.4s-58.9,146-154,195.9c95.1,49.9,154,119.2,154,195.9Z"/>
</svg>