<?xml version="1.0" encoding="UTF-8"?>
<svg id="Layer_2" data-name="Layer 2" xmlns="http://www.w3.org/2000/svg" xmlns:xlink="http://www.w3.org/1999/xlink" viewBox="0 0 1892.12 707.71">
  <defs>
    <style>
      .cls-1 {
        fill: #aab664;
        filter: url(#drop-shadow-1);
      }

      .cls-2 {
        fill: #fff;
      }

      .cls-3 {
        fill: none;
      }

      .cls-4 {
        fill: #fffef3;
      }

      .cls-5 {
        clip-path: url(#clippath);
      }

      .cls-6 {
        fill: #d85b30;
      }
    </style>
    <clipPath id="clippath">
      <rect class="cls-3" x="0" y="0" width="1892.12" height="707.71" rx="353.85" ry="353.85"/>
    </clipPath>
    <filter id="drop-shadow-1" x="-10.31" y="-8.15" width="1923" height="740" filterUnits="userSpaceOnUse">
      <feOffset dx="5" dy="7"/>
      <feGaussianBlur result="blur" stdDeviation="5"/>
      <feFlood flood-color="#808457" flood-opacity=".66"/>
      <feComposite in2="blur" operator="in"/>
      <feComposite in="SourceGraphic"/>
    </filter>
  </defs>
  <g id="Layer_2-2" data-name="Layer 2">
    <ellipse class="cls-4" cx="421.13" cy="353.85" rx="361" ry="328.83"/>
    <image width="1254" height="1254" transform="translate(147.42 99.34) scale(.41)" xlink:href="../../character image/choro-gi5.png"/>
    <g class="cls-5">
      <path class="cls-1" d="M1537.6.43H354.52C159.04.43,0,159.47,0,354.95s159.04,354.52,354.52,354.52h1183.09c195.48,0,354.52-159.04,354.52-354.52S1733.08.43,1537.6.43ZM706.22,470.06c0,89.36-72.44,161.8-161.8,161.8-43.43,0-82.85-17.11-111.91-44.95-29.06,27.84-68.49,44.95-111.91,44.95-89.36,0-161.8-72.44-161.8-161.8,0-45.04,18.41-85.78,48.11-115.11-29.7-29.33-48.11-70.07-48.11-115.11,0-89.36,72.44-161.8,161.8-161.8,43.43,0,82.85,17.11,111.91,44.95,29.06-27.84,68.49-44.95,111.91-44.95,89.36,0,161.8,72.44,161.8,161.8,0,45.04-18.41,85.78-48.11,115.11,29.7,29.33,48.11,70.07,48.11,115.11Z"/>
    </g>
    <path class="cls-6" d="M1537.62,676.61h-10.02v-3.34h10.6s0,3.34,0,3.34h-.58ZM1517.58,676.61h-10.01v-3.34h10.01v3.34ZM1497.57,676.61h-10.01v-3.34h10.01v3.34ZM1477.55,676.61h-10.01v-3.34h10.01v3.34ZM1457.53,676.61h-10.01v-3.34h10.01v3.34ZM1437.52,676.61h-10.01v-3.34h10.01v3.34ZM1417.5,676.61h-10.01v-3.34h10.01v3.34ZM1397.48,676.61h-10.01v-3.34h10.01v3.34ZM1377.47,676.61h-10.01v-3.34h10.01v3.34ZM1357.45,676.61h-10.01v-3.34h10.01v3.34ZM1337.43,676.61h-10.01v-3.34h10.01v3.34ZM1317.42,676.61h-10.01v-3.34h10.01v3.34ZM1297.4,676.61h-10.01v-3.34h10.01v3.34ZM1277.38,676.61h-10.01v-3.34h10.01v3.34ZM1257.36,676.61h-10.01v-3.34h10.01v3.34ZM1237.35,676.61h-10.01v-3.34h10.01v3.34ZM1217.33,676.61h-10.01v-3.34h10.01v3.34ZM1197.31,676.61h-10.01v-3.34h10.01v3.34ZM1177.3,676.61h-10.01v-3.34h10.01v3.34ZM1157.28,676.61h-10.01v-3.34h10.01v3.34ZM1137.26,676.61h-10.01v-3.34h10.01v3.34ZM1117.25,676.61h-10.01v-3.34h10.01v3.34ZM1097.23,676.61h-10.01v-3.34h10.01v3.34ZM1077.21,676.61h-10.01v-3.34h10.01v3.34ZM1057.19,676.61h-10.01v-3.34h10.01v3.34ZM1037.18,676.61h-10.01v-3.34h10.01v3.34ZM1017.16,676.61h-10.01v-3.34h10.01v3.34ZM997.14,676.61h-10.01v-3.34h10.01v3.34ZM977.13,676.61h-10.01v-3.34h10.01v3.34ZM957.11,676.61h-10.01v-3.34h10.01v3.34ZM937.09,676.61h-10.01v-3.34h10.01v3.34ZM917.08,676.61h-10.01v-3.34h10.01v3.34ZM897.06,676.61h-10.01v-3.34h10.01v3.34ZM877.04,676.61h-10.01v-3.34h10.01v3.34ZM857.02,676.61h-10.01v-3.34h10.01v3.34ZM837.01,676.61h-10.01v-3.34h10.01v3.34ZM816.99,676.61h-10.01v-3.34h10.01v3.34ZM796.97,676.61h-10.01v-3.34h10.01v3.34ZM776.96,676.61h-10.01v-3.34h10.01v3.34ZM756.94,676.61h-10.01v-3.34h10.01v3.34ZM736.92,676.61h-10.01v-3.34h10.01v3.34ZM716.91,676.61h-10.01v-3.34h10.01v3.34ZM696.89,676.61h-10.01v-3.34h10.01v3.34ZM676.87,676.61h-10.01v-3.34h10.01v3.34ZM656.85,676.61h-10.01v-3.34h10.01v3.34ZM636.84,676.61h-10.01v-3.34h10.01v3.34ZM616.82,676.61h-10.01v-3.34h10.01v3.34ZM596.8,676.61h-10.01v-3.34h10.01v3.34ZM576.79,676.61h-10.01v-3.34h10.01v3.34ZM556.77,676.61h-10.01v-3.34h10.01v3.34ZM536.75,676.61h-10.01v-3.34h10.01v3.34ZM516.74,676.61h-10.01v-3.34h10.01v3.34ZM496.72,676.61h-10.01v-3.34h10.01v3.34ZM476.7,676.61h-10.01v-3.34h10.01v3.34ZM456.69,676.61h-10.01v-3.34h10.01v3.34ZM436.67,676.61h-10.01v-3.34h10.01v3.34ZM416.65,676.61h-10.01v-3.34h10.01v3.34ZM396.63,676.61h-10.01v-3.34h10.01v3.34ZM376.62,676.61h-10.01v-3.34h10.01v3.34ZM356.6,676.61h-2.09c-2.66,0-5.31-.03-7.96-.1l.08-3.34c2.62.06,5.25.1,7.88.1h2.09v3.34ZM1548.26,676.44l-.11-3.34c3.3-.11,6.64-.27,9.94-.48l.21,3.34c-3.34.21-6.72.37-10.05.48ZM336.51,676.12c-3.34-.18-6.72-.42-10.03-.71l.29-3.33c3.28.28,6.62.52,9.93.7l-.18,3.34ZM1568.33,675.17l-.32-3.33c3.3-.31,6.63-.68,9.89-1.09l.42,3.32c-3.3.42-6.66.79-10,1.1ZM316.47,674.4c-3.32-.39-6.68-.84-9.97-1.33l.49-3.31c3.26.49,6.58.93,9.87,1.32l-.39,3.32ZM1588.28,672.66l-.52-3.3c3.27-.52,6.57-1.09,9.81-1.71l.62,3.28c-3.27.62-6.6,1.2-9.91,1.72ZM296.58,671.43c-3.28-.59-6.6-1.25-9.87-1.95l.7-3.27c3.24.69,6.52,1.34,9.77,1.93l-.6,3.29ZM1608.04,668.9l-.73-3.26c3.23-.72,6.49-1.5,9.68-2.31l.83,3.24c-3.23.82-6.52,1.61-9.78,2.34ZM276.91,667.22c-3.23-.8-6.5-1.66-9.73-2.56l.9-3.22c3.19.89,6.43,1.75,9.63,2.54l-.8,3.24ZM1627.53,663.92l-.93-3.21c3.18-.92,6.38-1.9,9.51-2.92l1.03,3.18c-3.16,1.03-6.4,2.02-9.62,2.95ZM257.54,661.79c-3.19-1-6.41-2.07-9.58-3.18l1.1-3.16c3.14,1.1,6.33,2.15,9.48,3.15l-1,3.19ZM1646.66,657.72l-1.13-3.15c3.09-1.11,6.22-2.29,9.31-3.51l1.23,3.11c-3.13,1.23-6.29,2.43-9.41,3.54ZM238.49,655.13c-3.12-1.2-6.27-2.47-9.35-3.78l1.3-3.08c3.06,1.29,6.17,2.54,9.26,3.73l-1.2,3.12ZM1665.34,650.35l-1.33-3.07c3.05-1.32,6.09-2.69,9.05-4.07l1.42,3.03c-2.99,1.4-6.07,2.79-9.15,4.12ZM219.91,647.29c-3.05-1.4-6.1-2.86-9.09-4.35l1.49-2.99c2.96,1.47,5.98,2.92,9,4.31l-1.4,3.04ZM1683.5,641.83l-1.51-2.98c2.94-1.49,5.9-3.05,8.78-4.63l1.6,2.93c-2.92,1.6-5.9,3.17-8.88,4.68ZM201.87,638.31c-2.92-1.57-5.88-3.22-8.8-4.91l1.67-2.89c2.89,1.67,5.82,3.3,8.71,4.86l-1.58,2.94ZM1701.11,632.19l-1.7-2.88c2.85-1.68,5.71-3.42,8.48-5.17l1.78,2.83c-2.81,1.77-5.69,3.53-8.57,5.23ZM184.44,628.22c-2.82-1.75-5.67-3.58-8.47-5.44l1.85-2.78c2.77,1.84,5.59,3.66,8.38,5.39l-1.76,2.84ZM1718.09,621.47l-1.87-2.77c2.73-1.85,5.47-3.76,8.15-5.69l1.96,2.71c-2.71,1.95-5.48,3.89-8.24,5.75ZM167.67,617.06c-2.73-1.94-5.46-3.95-8.11-5.96l2.02-2.66c2.62,1.99,5.32,3.98,8.03,5.9l-1.94,2.72ZM1734.38,609.71l-2.04-2.65c2.61-2.01,5.23-4.1,7.79-6.19l2.12,2.59c-2.58,2.12-5.23,4.22-7.87,6.25ZM151.64,604.9c-2.58-2.09-5.18-4.26-7.72-6.45l2.18-2.53c2.51,2.17,5.08,4.31,7.64,6.38l-2.1,2.6ZM1749.91,596.96l-2.2-2.52c2.48-2.16,4.96-4.41,7.39-6.66l2.28,2.45c-2.45,2.28-4.96,4.55-7.47,6.73ZM136.4,591.76c-2.44-2.24-4.9-4.57-7.3-6.91l2.33-2.39c2.38,2.32,4.81,4.62,7.23,6.84l-2.26,2.46ZM1764.64,583.27l-2.35-2.38c2.34-2.31,4.68-4.71,6.97-7.11l2.42,2.3c-2.31,2.43-4.68,4.85-7.04,7.18ZM122,577.71c-2.32-2.41-4.63-4.88-6.86-7.35l2.48-2.24c2.21,2.44,4.49,4.88,6.79,7.27l-2.41,2.32ZM1778.49,568.68l-2.49-2.23c2.2-2.47,4.4-5,6.51-7.53l2.56,2.15c-2.14,2.55-4.35,5.11-6.58,7.61ZM108.51,562.81c-2.16-2.54-4.31-5.15-6.39-7.76l2.61-2.09c2.06,2.58,4.19,5.16,6.32,7.68l-2.55,2.16ZM1791.41,553.26l-2.63-2.07c2.03-2.59,4.06-5.25,6.04-7.92l2.69,1.98c-1.99,2.7-4.04,5.39-6.1,8ZM95.98,547.1c-2-2.67-3.98-5.4-5.9-8.13l2.74-1.92c1.9,2.7,3.86,5.41,5.83,8.05l-2.68,2ZM1803.36,537.06l-2.75-1.9c1.89-2.73,3.75-5.52,5.54-8.29l2.81,1.81c-1.8,2.79-3.69,5.61-5.59,8.37ZM84.44,530.65c-1.83-2.79-3.64-5.64-5.38-8.48l2.85-1.75c1.72,2.81,3.51,5.63,5.32,8.39l-2.79,1.83ZM1814.29,520.14l-2.86-1.72c1.7-2.82,3.39-5.72,5.01-8.62l2.92,1.64c-1.64,2.93-3.34,5.86-5.06,8.71ZM73.96,513.53c-1.66-2.9-3.28-5.86-4.84-8.8l2.95-1.56c1.54,2.9,3.15,5.83,4.79,8.7l-2.9,1.65ZM1824.14,502.57l-2.97-1.54c1.53-2.95,3.03-5.95,4.46-8.92l3.01,1.45c-1.44,3-2.96,6.03-4.51,9.01ZM64.56,495.8c-1.46-2.98-2.9-6.03-4.28-9.07l3.05-1.38c1.36,3.01,2.79,6.03,4.23,8.98l-3,1.47ZM1832.87,484.4l-3.06-1.35c1.34-3.03,2.65-6.12,3.9-9.19l3.1,1.26c-1.26,3.1-2.58,6.22-3.94,9.28ZM56.3,477.52c-1.27-3.07-2.52-6.2-3.7-9.32l3.13-1.18c1.17,3.08,2.4,6.18,3.66,9.22l-3.09,1.28ZM1840.45,465.71l-3.14-1.16c1.15-3.11,2.26-6.28,3.31-9.42l3.17,1.06c-1.06,3.17-2.19,6.38-3.35,9.52ZM49.18,458.74c-1.08-3.16-2.13-6.38-3.12-9.56l3.19-.99c.97,3.15,2.01,6.34,3.08,9.46l-3.16,1.09ZM1846.84,446.6l-3.2-.96c.94-3.15,1.85-6.37,2.71-9.58l3.23.86c-.86,3.24-1.78,6.5-2.73,9.68ZM43.25,439.52c-.89-3.23-1.73-6.51-2.51-9.74l3.25-.78c.77,3.2,1.61,6.44,2.48,9.64l-3.22.88ZM1852,427.16l-3.26-.76c.74-3.19,1.45-6.47,2.1-9.73l3.28.65c-.66,3.3-1.37,6.61-2.12,9.83ZM38.53,419.97c-.68-3.27-1.32-6.6-1.9-9.88l3.29-.58c.57,3.25,1.2,6.54,1.88,9.77l-3.27.68ZM1855.93,407.44l-3.3-.55c.54-3.26,1.04-6.57,1.49-9.84l3.31.45c-.45,3.31-.95,6.66-1.5,9.95ZM35.05,400.16c-.47-3.29-.9-6.65-1.27-9.98l3.32-.37c.37,3.29.79,6.61,1.26,9.87l-3.31.48ZM1858.63,387.51l-3.32-.35c.34-3.27.63-6.61.87-9.92l3.33.24c-.24,3.34-.54,6.71-.88,10.02ZM32.81,380.18c-.27-3.32-.49-6.7-.65-10.04l3.34-.17c.16,3.3.38,6.64.65,9.93l-3.33.27ZM1860.08,367.45l-3.34-.14c.14-3.31.22-6.65.26-9.95l3.34.04c-.04,3.33-.12,6.71-.26,10.05ZM31.81,360.09c-.04-2.07-.06-4.15-.06-6.23,0-1.28,0-2.55.02-3.83l3.34.04c-.01,1.26-.02,2.52-.02,3.79,0,2.06.02,4.12.06,6.17l-3.34.06ZM1856.96,347.4c-.07-3.31-.18-6.65-.35-9.95l3.34-.17c.17,3.33.29,6.71.35,10.05l-3.34.07ZM35.39,340.12l-3.34-.14c.14-3.33.34-6.71.58-10.04l3.33.24c-.24,3.3-.43,6.64-.57,9.94ZM1855.95,327.52c-.27-3.29-.59-6.63-.96-9.91l3.32-.38c.37,3.31.7,6.68.97,10.01l-3.33.27ZM36.84,320.26l-3.32-.35c.35-3.33.75-6.69,1.2-9.99l3.31.45c-.44,3.26-.84,6.59-1.19,9.88ZM1853.72,307.75c-.47-3.27-1-6.58-1.58-9.83l3.29-.58c.58,3.29,1.12,6.63,1.59,9.93l-3.31.48ZM39.53,300.54l-3.3-.55c.55-3.3,1.17-6.63,1.82-9.89l3.28.66c-.65,3.23-1.25,6.53-1.8,9.79ZM1850.25,288.14c-.68-3.25-1.42-6.52-2.19-9.71l3.25-.79c.78,3.23,1.52,6.53,2.21,9.81l-3.27.69ZM43.44,281.03l-3.26-.76c.76-3.25,1.58-6.53,2.44-9.76l3.23.86c-.85,3.19-1.66,6.44-2.41,9.65ZM1845.57,268.8c-.87-3.17-1.81-6.38-2.79-9.55l3.19-.99c.99,3.2,1.94,6.45,2.82,9.65l-3.22.89ZM48.56,261.79l-3.2-.96c.96-3.21,1.99-6.45,3.06-9.62l3.17,1.06c-1.05,3.14-2.07,6.34-3.03,9.52ZM1839.68,249.78c-1.08-3.12-2.22-6.27-3.39-9.36l3.12-1.19c1.18,3.12,2.34,6.3,3.42,9.46l-3.16,1.09ZM54.91,242.86l-3.13-1.16c1.16-3.13,2.39-6.3,3.65-9.4l3.1,1.26c-1.25,3.07-2.47,6.2-3.62,9.3ZM1832.63,231.21c-1.27-3.04-2.6-6.1-3.96-9.1l3.04-1.38c1.37,3.03,2.72,6.12,4,9.2l-3.09,1.29ZM62.43,224.37l-3.06-1.36c1.36-3.07,2.79-6.14,4.24-9.15l3.01,1.45c-1.43,2.97-2.84,6.02-4.19,9.05ZM1824.43,213.13c-1.44-2.94-2.96-5.91-4.52-8.84l2.95-1.57c1.57,2.96,3.11,5.96,4.57,8.93l-3,1.48ZM71.09,206.41l-2.96-1.55c1.54-2.95,3.15-5.93,4.8-8.86l2.91,1.64c-1.63,2.9-3.22,5.85-4.75,8.77ZM1815.12,195.59c-1.65-2.88-3.35-5.75-5.06-8.55l2.85-1.75c1.73,2.82,3.45,5.73,5.12,8.64l-2.9,1.66ZM80.86,189.02l-2.86-1.73c1.72-2.85,3.52-5.73,5.34-8.54l2.81,1.81c-1.8,2.78-3.58,5.63-5.28,8.45ZM1804.73,178.65c-1.81-2.76-3.69-5.52-5.59-8.22l2.74-1.92c1.92,2.73,3.82,5.52,5.65,8.31l-2.79,1.84ZM91.68,172.29l-2.75-1.9c1.91-2.76,3.88-5.52,5.86-8.19l2.69,1.99c-1.95,2.64-3.9,5.36-5.8,8.1ZM1793.3,162.38c-1.97-2.63-4.02-5.28-6.09-7.86l2.61-2.09c2.09,2.61,4.16,5.29,6.15,7.95l-2.67,2ZM103.52,156.27l-2.62-2.07c2.07-2.63,4.21-5.26,6.35-7.8l2.56,2.15c-2.12,2.52-4.23,5.12-6.29,7.72ZM1780.88,146.85c-2.14-2.51-4.35-5.02-6.57-7.47l2.48-2.25c2.24,2.48,4.48,5.02,6.64,7.55l-2.54,2.17ZM116.33,141.02l-2.49-2.23c2.22-2.48,4.52-4.97,6.82-7.39l2.42,2.3c-2.28,2.4-4.55,4.86-6.75,7.32ZM1767.51,132.11c-2.3-2.38-4.66-4.76-7.02-7.06l2.33-2.39c2.38,2.32,4.77,4.72,7.09,7.13l-2.41,2.32ZM130.05,126.6l-2.35-2.38c2.36-2.34,4.81-4.68,7.26-6.96l2.27,2.45c-2.43,2.26-4.85,4.57-7.19,6.88ZM1753.25,118.22c-2.44-2.23-4.95-4.46-7.45-6.61l2.18-2.53c2.53,2.17,5.06,4.42,7.52,6.68l-2.26,2.46ZM144.64,113.06l-2.2-2.52c2.52-2.2,5.1-4.38,7.68-6.49l2.12,2.59c-2.55,2.09-5.1,4.25-7.6,6.42ZM1738.16,105.23c-2.58-2.08-5.22-4.15-7.84-6.14l2.02-2.66c2.65,2.01,5.32,4.09,7.93,6.2l-2.1,2.6ZM160.02,100.45l-2.04-2.65c2.64-2.03,5.35-4.05,8.06-6l1.95,2.71c-2.68,1.93-5.36,3.93-7.98,5.94ZM1722.28,93.2c-2.69-1.91-5.45-3.81-8.21-5.64l1.85-2.78c2.79,1.85,5.58,3.77,8.3,5.7l-1.94,2.73ZM176.16,88.83l-1.87-2.77c2.79-1.88,5.63-3.73,8.41-5.48l1.78,2.83c-2.76,1.74-5.56,3.56-8.33,5.43ZM1705.68,82.18c-2.81-1.74-5.69-3.46-8.55-5.12l1.67-2.9c2.9,1.67,5.8,3.41,8.64,5.17l-1.76,2.84ZM192.97,78.24l-1.69-2.88c2.91-1.71,5.85-3.37,8.74-4.95l1.6,2.93c-2.86,1.56-5.76,3.2-8.64,4.89ZM1688.42,72.21c-2.94-1.58-5.92-3.12-8.86-4.58l1.49-2.99c2.97,1.48,5.98,3.03,8.95,4.62l-1.58,2.95ZM210.4,68.71l-1.51-2.98c2.99-1.52,6.03-2.99,9.02-4.39l1.42,3.03c-2.96,1.38-5.96,2.84-8.93,4.35ZM1670.55,63.33c-3-1.38-6.08-2.73-9.14-4.01l1.3-3.08c3.09,1.3,6.2,2.67,9.23,4.06l-1.39,3.04ZM228.38,60.3l-1.32-3.07c3.07-1.32,6.18-2.6,9.27-3.82l1.22,3.11c-3.05,1.2-6.14,2.47-9.17,3.78ZM1652.16,55.59c-3.1-1.19-6.26-2.35-9.37-3.43l1.1-3.16c3.15,1.1,6.34,2.27,9.47,3.47l-1.2,3.12ZM246.87,53.03l-1.13-3.15c3.13-1.12,6.34-2.21,9.52-3.24l1.03,3.18c-3.15,1.02-6.32,2.1-9.42,3.2ZM1633.31,49.02c-3.16-.99-6.37-1.94-9.54-2.83l.9-3.22c3.21.9,6.45,1.86,9.64,2.86l-1,3.19ZM265.82,46.91l-.93-3.21c3.23-.93,6.5-1.82,9.71-2.63l.82,3.24c-3.17.81-6.41,1.69-9.61,2.61ZM1614.14,43.66c-3.23-.79-6.49-1.54-9.7-2.22l.7-3.27c3.24.69,6.54,1.45,9.8,2.25l-.8,3.24ZM285.1,42l-.72-3.26c3.26-.72,6.58-1.4,9.85-2.02l.62,3.28c-3.24.61-6.52,1.28-9.75,2ZM1594.67,39.52c-3.23-.58-6.53-1.13-9.82-1.61l.49-3.31c3.33.49,6.67,1.04,9.93,1.63l-.59,3.29ZM304.66,38.3l-.52-3.3c3.29-.52,6.64-.99,9.96-1.4l.41,3.32c-3.29.41-6.6.88-9.86,1.39ZM1574.98,36.6c-3.26-.38-6.59-.72-9.9-1l.28-3.33c3.35.29,6.72.63,10.01,1.01l-.39,3.32ZM324.41,35.84l-.31-3.33c3.31-.31,6.69-.57,10.03-.78l.21,3.34c-3.31.21-6.65.47-9.92.78ZM1555.15,34.91c-3.27-.18-6.61-.31-9.94-.39l.08-3.34c3.36.08,6.75.21,10.05.39l-.18,3.34ZM344.28,34.6l-.1-3.34c3.32-.1,6.71-.16,10.06-.16v3.34c-3.31,0-6.66.06-9.95.16ZM1535.23,34.44h-10.01v-3.34h10.01v3.34ZM1515.22,34.44h-10.01v-3.34h10.01v3.34ZM1495.2,34.44h-10.01v-3.34h10.01v3.34ZM1475.18,34.44h-10.01v-3.34h10.01v3.34ZM1455.17,34.44h-10.01v-3.34h10.01v3.34ZM1435.15,34.44h-10.01v-3.34h10.01v3.34ZM1415.13,34.44h-10.01v-3.34h10.01v3.34ZM1395.12,34.44h-10.01v-3.34h10.01v3.34ZM1375.1,34.44h-10.01v-3.34h10.01v3.34ZM1355.08,34.44h-10.01v-3.34h10.01v3.34ZM1335.06,34.44h-10.01v-3.34h10.01v3.34ZM1315.05,34.44h-10.01v-3.34h10.01v3.34ZM1295.03,34.44h-10.01v-3.34h10.01v3.34ZM1275.01,34.44h-10.01v-3.34h10.01v3.34ZM1255,34.44h-10.01v-3.34h10.01v3.34ZM1234.98,34.44h-10.01v-3.34h10.01v3.34ZM1214.96,34.44h-10.01v-3.34h10.01v3.34ZM1194.95,34.44h-10.01v-3.34h10.01v3.34ZM1174.93,34.44h-10.01v-3.34h10.01v3.34ZM1154.91,34.44h-10.01v-3.34h10.01v3.34ZM1134.89,34.44h-10.01v-3.34h10.01v3.34ZM1114.88,34.44h-10.01v-3.34h10.01v3.34ZM1094.86,34.44h-10.01v-3.34h10.01v3.34ZM1074.84,34.44h-10.01v-3.34h10.01v3.34ZM1054.83,34.44h-10.01v-3.34h10.01v3.34ZM1034.81,34.44h-10.01v-3.34h10.01v3.34ZM1014.79,34.44h-10.01v-3.34h10.01v3.34ZM994.78,34.44h-10.01v-3.34h10.01v3.34ZM974.76,34.44h-10.01v-3.34h10.01v3.34ZM954.74,34.44h-10.01v-3.34h10.01v3.34ZM934.73,34.44h-10.01v-3.34h10.01v3.34ZM914.71,34.44h-10.01v-3.34h10.01v3.34ZM894.69,34.44h-10.01v-3.34h10.01v3.34ZM874.67,34.44h-10.01v-3.34h10.01v3.34ZM854.66,34.44h-10.01v-3.34h10.01v3.34ZM834.64,34.44h-10.01v-3.34h10.01v3.34ZM814.62,34.44h-10.01v-3.34h10.01v3.34ZM794.61,34.44h-10.01v-3.34h10.01v3.34ZM774.59,34.44h-10.01v-3.34h10.01v3.34ZM754.57,34.44h-10.01v-3.34h10.01v3.34ZM734.56,34.44h-10.01v-3.34h10.01v3.34ZM714.54,34.44h-10.01v-3.34h10.01v3.34ZM694.52,34.44h-10.01v-3.34h10.01v3.34ZM674.5,34.44h-10.01v-3.34h10.01v3.34ZM654.49,34.44h-10.01v-3.34h10.01v3.34ZM634.47,34.44h-10.01v-3.34h10.01v3.34ZM614.45,34.44h-10.01v-3.34h10.01v3.34ZM594.44,34.44h-10.01v-3.34h10.01v3.34ZM574.42,34.44h-10.01v-3.34h10.01v3.34ZM554.4,34.44h-10.01v-3.34h10.01v3.34ZM534.39,34.44h-10.01v-3.34h10.01v3.34ZM514.37,34.44h-10.01v-3.34h10.01v3.34ZM494.35,34.44h-10.01v-3.34h10.01v3.34ZM474.33,34.44h-10.01v-3.34h10.01v3.34ZM454.32,34.44h-10.01v-3.34h10.01v3.34ZM434.3,34.44h-10.01v-3.34h10.01v3.34ZM414.28,34.44h-10.01v-3.34h10.01v3.34ZM394.27,34.44h-10.01v-3.34h10.01v3.34ZM374.25,34.44h-10.01v-3.34h10.01v3.34Z"/>
    <g>
      <path class="cls-2" d="M769.97,154.18c2.31-.82,4.55-1.22,6.73-1.22,7.2,0,12.51,3.26,15.91,9.79,2.58,4.76,3.87,9.11,3.87,13.05,0,1.36-.27,2.99-.81,4.89-.55,1.91-.82,3.06-.82,3.47,0,1.22.41,2.85,1.22,4.89,1.09,2.85,1.63,5.58,1.63,8.16,0,.27-.03.71-.1,1.33-.07.61-.1,1.06-.1,1.33-.14.68-.2,1.63-.2,2.85,0,2.72.41,4.76,1.22,6.12.95,1.91,1.49,2.85,1.63,2.85.41,0,2.17-1.56,5.3-4.69,3.26-2.99,4.89-5.37,4.89-7.14,0-3.53,1.02-7.07,3.06-10.6,2.04-3.53,4.55-6.05,7.54-7.54,1.9-.95,4.55-1.43,7.95-1.43s5.84.48,7.75,1.43c1.77.95,3.94,2.96,6.53,6.01,2.58,3.06,4.41,5.88,5.51,8.46,1.09,2.58,1.97,3.87,2.65,3.87s2.58,1.43,5.71,4.28l4.49,4.08,2.24-3.06c1.49-1.77,2.24-4.82,2.24-9.18,0-4.08.82-7.41,2.45-9.99,1.63-2.31,2.72-5.91,3.26-10.81.68-5.98,2-10.43,3.98-13.36,1.97-2.92,5.06-4.92,9.28-6.01,1.63-.41,3.19-.61,4.69-.61,3.26,0,7.27,1.16,12.03,3.47,7.61,3.81,11.42,9.18,11.42,16.11,0,4.62-1.83,9.04-5.51,13.25-2.45,2.99-3.67,5.98-3.67,8.97,0,2.31-.58,5.07-1.73,8.26-1.16,3.2-2.28,5.07-3.37,5.61-.81.54-1.22,2.11-1.22,4.69s-.89,5.64-2.65,9.18c-1.5,2.85-2.24,6.25-2.24,10.19v4.69c0,3.94-.75,7.41-2.24,10.4-1.63,3.26-2.45,5.98-2.45,8.16,0,4.76-1.36,8.63-4.08,11.62-1.22,1.5-2.04,5.03-2.45,10.6-.14,5.84-1.02,9.85-2.65,12.03-1.36,1.9-3.5,3.57-6.42,4.99-2.92,1.43-5.61,2.21-8.05,2.35-4.49,0-8.84-2.07-13.05-6.22-4.21-4.15-6.66-8.87-7.34-14.17-.68-4.21-1.84-7.14-3.47-8.77-3.26-3.26-4.89-7.27-4.89-12.03-.14-1.77-.61-3.4-1.43-4.89-.82-1.49-1.7-2.24-2.65-2.24-1.63,0-3.06,3.2-4.28,9.58-1.09,4.35-2.58,7.88-4.49,10.6-2.18,2.85-3.26,5.58-3.26,8.16v1.84c0,4.76-1.63,8.77-4.89,12.03-3.26,3.26-7.68,5.16-13.25,5.71-.68.13-1.7.2-3.06.2-5.85,0-10.64-1.63-14.38-4.89-3.74-3.26-5.61-7.41-5.61-12.44,0-1.76.13-3.13.41-4.08.68-2.58.54-4.49-.41-5.71-3.13-3.53-4.69-7.61-4.69-12.23,0-.27.03-.68.1-1.22.07-.54.1-.95.1-1.22.13-.95.2-2.11.2-3.47,0-1.9-.48-3.53-1.43-4.89-2.58-3.67-3.87-7.61-3.87-11.83,0-.68.13-1.83.41-3.47.41-1.49.61-2.58.61-3.26,0-1.09-.48-2.11-1.43-3.06-3.54-3.67-5.3-8.49-5.3-14.48,0-4.35-.54-7.61-1.63-9.79-.95-2.31-1.43-4.76-1.43-7.34v-1.84c0-2.72-.61-5.23-1.83-7.54-2.45-4.76-3.67-9.18-3.67-13.25,0-9.11,5.17-15.63,15.5-19.57Z"/>
      <path class="cls-2" d="M965.1,134c1.36-.68,3.13-1.02,5.3-1.02,4.89,0,8.77.95,11.62,2.85,1.63,1.22,2.99,1.83,4.08,1.83.68,0,1.63-.2,2.85-.61,1.22-.41,2.51-.61,3.87-.61l4.08.61c1.22.41,3.47.61,6.73.61,2.04,0,3.53-.07,4.49-.2,1.09-.13,2.58-.2,4.49-.2,6.39,0,11.42,1.56,15.09,4.69,4.21,3.54,6.32,8.09,6.32,13.66s-2.18,10.2-6.53,13.46c-3.81,2.99-8.9,4.49-15.29,4.49-1.77,0-3.4-.2-4.89-.61-1.63-.41-2.85-.61-3.67-.61-.95,0-2.65.55-5.1,1.63-2.04,1.09-4.08,1.63-6.12,1.63-1.36,0-2.45-.07-3.26-.2-1.09-.13-4.89-.41-11.42-.82l-6.32-.2.2,11.01c.13,4.08.2,7.88.2,11.42l.61-.2c.27-.27.68-.61,1.22-1.02.54-.41,1.09-.88,1.63-1.43,2.45-2.04,5.3-3.53,8.56-4.49,1.76-.54,3.4-.82,4.89-.82,1.36,0,3.26.41,5.71,1.22s4.21,1.22,5.3,1.22,2.45-.41,4.08-1.22c2.58-1.09,5.78-1.63,9.58-1.63s6.59.54,8.77,1.63c2.99,1.5,5.4,3.74,7.24,6.73,1.83,2.99,2.75,6.12,2.75,9.38,0,.95-.14,2.11-.41,3.47-.95,3.13-2.04,5.51-3.26,7.14-1.22,1.63-3.54,3.54-6.93,5.71-2.85,1.91-5.03,3.09-6.52,3.57-1.5.48-3.74.78-6.73.92-4.49.14-7.88.95-10.19,2.45-2.58,1.5-5.78,2.24-9.58,2.24-2.58,0-4.76-.41-6.53-1.22-.41-.27-1.02-.41-1.83-.41-1.22,0-3.06.88-5.51,2.65-3.54,2.72-5.3,5.64-5.3,8.77,0,1.9.34,3.74,1.02,5.51.41.95.88,2.92,1.43,5.91,0,.81.13,1.36.41,1.63.27.27.68.27,1.22,0,.54-.27,1.09-.75,1.63-1.43,1.09-1.22,3.09-2.48,6.01-3.77,2.92-1.29,5.33-1.94,7.24-1.94s4.08.41,6.53,1.22c.68.27,1.56.41,2.65.41,1.63,0,3.4-.34,5.3-1.02,2.31-.81,4.62-1.22,6.93-1.22,4.49,0,8.49,1.29,12.03,3.87,3.53,2.58,5.84,6.05,6.93,10.4.41,1.36.61,2.72.61,4.08,0,5.03-2.01,9.48-6.02,13.36-4.01,3.87-8.74,5.81-14.17,5.81-2.99,0-5.58.75-7.75,2.24-2.58,1.9-6.12,2.85-10.6,2.85-2.18,0-3.87-.27-5.1-.82-.95-.41-1.77-.61-2.45-.61-1.09,0-3.33.88-6.73,2.65-3.81,2.04-7.41,3.06-10.81,3.06-2.31,0-4.69-.54-7.14-1.63-2.58-1.22-4.86-3.09-6.83-5.61-1.97-2.51-3.16-4.92-3.57-7.24-.55-2.85-2.24-5.51-5.1-7.95-5.85-4.76-8.77-10.94-8.77-18.55,0-1.22.07-2.11.2-2.65.41-2.99.61-5.03.61-6.12,0-.95-.41-3.67-1.22-8.16-.41-2.72-.61-4.62-.61-5.71,0-1.63.47-3.6,1.43-5.91,1.22-2.58,1.83-5.1,1.83-7.54,0-.27-.03-.68-.1-1.22-.07-.54-.1-1.02-.1-1.43v-2.24c0-2.72.2-4.69.61-5.91.27-.54.41-1.29.41-2.24,0-1.09-.41-2.38-1.22-3.87-1.36-2.31-2.04-5.23-2.04-8.77,0-3.13.54-5.78,1.63-7.95.81-1.49,1.22-2.65,1.22-3.47,0-.54-.27-1.63-.81-3.26-.41-1.36-.61-2.72-.61-4.08,0-2.72,1.22-6.79,3.67-12.23,3.53-7.61,7.82-11.96,12.85-13.05,1.9-.41,3.26-1.56,4.08-3.47.68-1.49,1.9-3.19,3.67-5.1,1.77-1.9,3.53-3.33,5.3-4.28Z"/>
      <path class="cls-2" d="M1073.17,130.94c2.04-.82,4.14-1.22,6.32-1.22,7.07,0,12.23,3.13,15.5,9.38,1.49,2.58,2.24,5.51,2.24,8.77,0,2.99-.68,6.25-2.04,9.79-1.09,2.99-1.63,4.96-1.63,5.91,0,1.09.41,2.72,1.22,4.89.82,2.18,1.22,4.49,1.22,6.93,0,3.67-.82,6.73-2.45,9.18-.68,1.09-1.02,2.11-1.02,3.06,0,.82.2,1.97.61,3.47.27.81.41,2.18.41,4.08,0,4.76-.89,8.23-2.65,10.4-.81,1.09-.61,2.92.61,5.51,1.09,2.45,1.63,4.83,1.63,7.14,0,.27-.04.75-.1,1.43-.07.68-.1,1.22-.1,1.63-.14.68-.2,1.7-.2,3.06,0,2.85.34,5.3,1.02,7.34.95,2.58,1.43,5.1,1.43,7.55v3.47l6.73.41c.95.14,2.17.2,3.67.2,2.45,0,4.35-.34,5.71-1.02,1.77-.95,4.21-1.43,7.34-1.43,3.8,0,6.86.68,9.17,2.04,1.77,1.22,3.13,1.84,4.08,1.84.54,0,2.24-.47,5.1-1.43,2.85-.95,5.16-1.43,6.93-1.43,3.8,0,7.54,1.83,11.21,5.51,4.21,4.21,6.32,9.31,6.32,15.29,0,7.75-3.13,13.32-9.38,16.72-2.18,1.09-5.23,1.63-9.18,1.63-2.45,0-4.69-.34-6.73-1.02-1.09-.41-2.04-.61-2.85-.61s-2.04.34-3.67,1.02c-2.04.95-4.35,1.43-6.93,1.43-1.9,0-3.87-.34-5.91-1.02-.81-.41-1.56-.61-2.24-.61-.95,0-2.92.75-5.91,2.24-3.26,1.63-5.98,2.45-8.16,2.45-1.9,0-4.49-.81-7.75-2.45-2.85-1.36-5.37-2.04-7.55-2.04-.27,0-.65.04-1.12.1-.48.07-.92.1-1.33.1h-1.83c-6.8,0-12.64-1.97-17.54-5.91-4.08-3.4-6.12-7.81-6.12-13.25,0-2.45.54-4.96,1.63-7.55.68-1.63,1.02-2.78,1.02-3.47s-.54-2.11-1.63-4.28c-1.5-2.58-2.24-6.05-2.24-10.4,0-2.31.34-4.35,1.02-6.12.68-1.22.54-2.85-.41-4.89-.95-1.77-1.43-4.49-1.43-8.16,0-3.13.34-5.3,1.02-6.53.41-.82.61-1.97.61-3.47s-.2-3.47-.61-5.91-.61-4.41-.61-5.91.34-3.6,1.02-6.32c.68-2.45,1.02-4.01,1.02-4.69,0-.82-.55-2.17-1.63-4.08-1.5-2.31-2.24-5.1-2.24-8.36,0-3.94,1.09-7.41,3.26-10.4,2.17-3.26,3.26-6.73,3.26-10.4,0-3.94.68-7.07,2.04-9.38,2.99-5.03,6.59-8.43,10.81-10.19Z"/>
      <path class="cls-2" d="M1227.52,146.02c1.36-1.9,3.57-3.5,6.63-4.79,3.06-1.29,6.22-1.94,9.48-1.94,2.58,0,4.69.34,6.32,1.02,1.36.68,5.71,1.16,13.05,1.43,4.76.14,7.81.34,9.18.61,1.36.27,2.99,1.02,4.89,2.24,5.44,3.94,8.16,8.84,8.16,14.68,0,3.26-.89,6.59-2.65,9.99-4.35,8.56-10.2,12.85-17.54,12.85-.95,0-2.24-.13-3.87-.41-2.99-.54-4.62-.82-4.89-.82-.68-.41-1.16-.75-1.43-1.02-.68-.68-2.72-.75-6.12-.2-3.67.54-6.8,2.04-9.38,4.49-2.18,2.04-4.42,3.54-6.73,4.49-1.77.68-3.47,2.69-5.1,6.02-1.63,3.33-2.45,6.49-2.45,9.48,0,2.58-.68,5.78-2.04,9.58-1.09,2.85-1.63,4.62-1.63,5.3,0,.81.41,2.38,1.22,4.69,1.22,2.99,3.06,5.37,5.51,7.14,2.58,1.77,4.69,4.28,6.32,7.54,1.76,3.4,3.8,5.91,6.12,7.54,1.9,1.22,3.19,1.84,3.87,1.84.54,0,1.7-.34,3.47-1.02,2.45-.82,4.89-1.22,7.34-1.22h1.84c2.99,0,6.73-1.09,11.21-3.26,4.49-2.04,8.09-3.06,10.81-3.06,2.31,0,4.62.75,6.93,2.24,6.12,3.94,9.17,9.72,9.17,17.33,0,5.98-2.04,11.01-6.12,15.09-3.81,3.81-7.82,5.71-12.03,5.71-1.5,0-3.13-.2-4.89-.61-2.45-.54-3.81-.82-4.08-.82-1.22,0-2.72.68-4.49,2.04-2.18,1.5-5.17,2.24-8.97,2.24h-2.85c-3.13-.13-8.29-.2-15.5-.2-11.01-.13-19.03-4.96-24.06-14.48-1.36-2.17-2.92-3.47-4.69-3.87-3.26-.54-6.39-2.75-9.38-6.63-2.99-3.87-4.56-7.58-4.69-11.11,0-1.9-.88-3.87-2.65-5.91-3.13-3.8-4.69-8.09-4.69-12.84,0-1.77.34-3.67,1.02-5.71.13-.27.2-.61.2-1.02,0-1.09-.81-2.78-2.45-5.1-2.04-2.85-3.06-6.05-3.06-9.58,0-4.76,1.63-8.77,4.89-12.03,1.49-1.77,2.45-4.82,2.85-9.18.68-8.02,4.28-13.46,10.81-16.31,1.9-.82,3.16-1.53,3.77-2.14s.92-1.53.92-2.75c0-3.4,1.77-6.73,5.3-9.99,3.53-3.26,7.2-4.89,11.01-4.89,2.99,0,5.03-.88,6.12-2.65Z"/>
      <path class="cls-2" d="M1384.92,137.05c4.21-3.13,8.63-4.69,13.25-4.69,7.07,0,12.37,3.4,15.91,10.2,1.9,3.4,3.53,5.1,4.89,5.1,1.9,0,4.28.78,7.14,2.35,2.85,1.56,4.89,3.23,6.12,4.99,1.63,2.18,2.78,4.56,3.47,7.14.82,2.99,2.58,5.37,5.3,7.14,2.31,1.5,4.31,3.64,6.01,6.42,1.7,2.79,2.55,5.27,2.55,7.44,0,1.63-.41,4.08-1.22,7.34-.41,1.63-.61,2.92-.61,3.87,0,1.36.54,2.85,1.63,4.49,1.63,2.45,2.45,5.64,2.45,9.58,0,3.26-.61,5.85-1.83,7.75-1.22,1.63-1.83,4.01-1.83,7.14,0,.41.03,1.09.1,2.04.07.95.1,1.7.1,2.24v2.85c0,4.21-.48,7.48-1.43,9.79-1.09,2.45-1.63,4.96-1.63,7.55,0,3.81-1.36,7.72-4.08,11.72-2.72,4.01-5.85,6.56-9.38,7.65-2.31.81-3.47,1.77-3.47,2.85,0,1.63-.92,3.57-2.75,5.81s-3.77,3.91-5.81,5c-2.58,1.5-5.85,2.24-9.79,2.24s-6.39.68-7.75,2.04c-3.26,3.53-7.41,5.3-12.44,5.3-4.76,0-8.77-1.57-12.03-4.69-1.5-1.36-4.15-2.11-7.95-2.24-4.08-.13-7.85-1.22-11.32-3.26s-6.09-4.76-7.85-8.16c-1.09-1.9-2.85-2.85-5.3-2.85-4.22,0-7.78-1.33-10.71-3.98-2.92-2.65-4.86-6.29-5.81-10.91-.95-4.21-2.18-6.79-3.67-7.75-1.9-1.36-3.47-3.47-4.69-6.32-1.22-2.85-1.84-5.78-1.84-8.77,0-2.17.27-3.87.82-5.1.54-1.36.13-3.19-1.22-5.51-1.9-2.99-2.85-7.81-2.85-14.48,0-4.08.47-7,1.43-8.77.82-1.63,1.22-3.4,1.22-5.3,0-1.36-.07-2.45-.2-3.26-.14-.81-.2-1.9-.2-3.26,0-5.16,2.24-9.72,6.73-13.66,3.13-2.58,4.69-5.1,4.69-7.54,0-3.8,1.49-7.14,4.49-9.99,2.99-2.85,7-4.76,12.03-5.71,3.67-.81,6.32-2.51,7.95-5.1,3.26-5.03,8.09-7.54,14.48-7.54,3.13,0,6.18.48,9.18,1.43,2.31.68,3.74,1.02,4.28,1.02.82,0,1.97-.54,3.47-1.63ZM1381.87,177.22c-2.85-1.22-4.76-1.83-5.71-1.83-.82,0-2.31.55-4.49,1.63-9.38,5.17-14.07,8.97-14.07,11.42,0,1.5-.89,4.01-2.65,7.54-1.5,2.85-2.24,5.37-2.24,7.54,0,1.77.07,3.26.2,4.49.41,4.62,1.36,7.88,2.85,9.79,1.36,1.9,2.04,4.96,2.04,9.18,0,2.99.24,5.03.71,6.12.47,1.09,1.94,2.85,4.38,5.3,2.99,3.13,6.18,5.58,9.58,7.34,2.85,1.22,4.82,2.38,5.91,3.47.82,1.09,3.33,1.63,7.55,1.63,5.84,0,9.92-.81,12.23-2.45,1.9-1.49,3.53-2.45,4.89-2.85,1.36-.54,2.04-1.29,2.04-2.24,0-1.09,1.02-2.78,3.06-5.1,2.17-2.31,3.26-4.69,3.26-7.14,0-2.85.54-5.91,1.63-9.17.68-2.72,1.02-4.62,1.02-5.71,0-1.22-.2-2.45-.61-3.67-.55-1.9-.82-4.15-.82-6.73,0-1.36.07-2.31.2-2.85,0-.41.03-.92.1-1.53.07-.61.1-1.05.1-1.33,0-1.9-.55-4.28-1.63-7.14-1.36-2.72-2.04-5.16-2.04-7.34,0-1.63-1.43-3.6-4.28-5.91-2.18-1.77-3.74-2.65-4.69-2.65-.81,0-1.83.27-3.06.81-2.04.95-4.35,1.43-6.93,1.43-2.85,0-5.71-.68-8.56-2.04Z"/>
      <path class="cls-2" d="M1572.51,129.1c2.85-1.36,5.78-2.04,8.77-2.04,5.16,0,9.48,2.11,12.95,6.32,3.47,4.21,5.47,9.86,6.01,16.92.27,4.49,1.09,7.88,2.45,10.19,1.77,3.4,2.65,6.66,2.65,9.79,0,1.5-.2,2.99-.61,4.49-.81,2.72-.88,4.42-.2,5.1.41.27,1.15,2.18,2.24,5.71.54,2.45.81,3.87.81,4.28,0,1.5-.41,3.33-1.22,5.51-.68,1.9-1.02,3.6-1.02,5.1,0,1.22.13,2.11.41,2.65.68,1.5,1.02,4.22,1.02,8.16s-.34,7.34-1.02,9.79c-.55,2.45-.82,3.87-.82,4.28,0,1.22.41,2.79,1.22,4.69.95,2.45,1.43,4.96,1.43,7.54,0,2.45-.48,4.62-1.43,6.53-.82,1.5-1.22,2.65-1.22,3.47,0,.54.47,2.58,1.43,6.12.82,2.85,1.22,4.89,1.22,6.12,0,1.09-.2,2.45-.61,4.08-1.22,4.21-3.84,7.88-7.85,11.01-4.01,3.13-8.05,4.76-12.13,4.89-3.54,0-6.97-1.15-10.3-3.47-3.33-2.31-5.61-5.16-6.83-8.56-.68-2.04-1.02-4.28-1.02-6.73,0-4.08.68-7.48,2.04-10.2.82-2.04,1.22-3.39,1.22-4.08,0-.82-.34-1.76-1.02-2.85-.95-1.63-1.43-3.87-1.43-6.73v-1.43c.27-5.44.41-8.36.41-8.77,0-2.31-.34-4.82-1.02-7.54-.27-.68-.41-2.24-.41-4.69,0-4.49.47-8.9,1.43-13.25.27-.95-.14-1.43-1.22-1.43s-1.83,1.77-2.24,5.3c-.27,2.58-1.12,5.51-2.55,8.77-1.43,3.26-2.68,5.24-3.77,5.91-.68.41-1.02,1.91-1.02,4.49,0,5.44-2.21,10.37-6.63,14.78-4.42,4.42-9.28,6.63-14.58,6.63-4.21,0-8.16-1.49-11.83-4.49-3.67-2.99-5.85-6.53-6.53-10.6-.68-2.58-1.7-4.28-3.06-5.1-1.91-.95-3.47-2.04-4.69-3.26-1.09-1.09-1.97-1.63-2.65-1.63-.27,0-.41.14-.41.41,0,.55.54,1.77,1.63,3.67,1.49,2.58,2.24,5.71,2.24,9.38,0,2.85-.55,5.37-1.63,7.55-.68,1.63-1.02,2.72-1.02,3.26,0,.95.54,2.52,1.63,4.69,1.22,2.58,1.84,5.23,1.84,7.95,0,4.89-1.87,9.21-5.61,12.95-3.74,3.74-8.19,5.61-13.36,5.61h-1.83c-6.66-.68-11.49-3.87-14.48-9.58-1.09-2.17-1.63-5.3-1.63-9.38,0-2.72.34-5.1,1.02-7.14.82-1.77.61-3.74-.61-5.91-.68-1.5-1.29-4.76-1.84-9.79-.55-5.03-1.22-8.36-2.04-9.99-1.22-2.72-1.83-5.78-1.83-9.18.13-16.04.31-25.39.51-28.04s1.05-5.54,2.55-8.67c1.5-2.99,2.24-5.23,2.24-6.73,0-.41-.27-2.24-.82-5.51-.27-1.22-.41-3.06-.41-5.51,0-10.33,3.67-17.47,11.01-21.41,2.72-1.36,5.44-2.04,8.16-2.04,6.12,0,11.76,3.81,16.92,11.42,2.85,5.17,4.35,8.5,4.49,9.99,0,.27-.04.78-.1,1.53-.07.75-.1,1.33-.1,1.73l-.41,6.73,3.26,1.02c2.17.68,4.69,2.58,7.54,5.71,2.85,3.13,4.69,5.91,5.51,8.36.82,2.45,1.5,3.67,2.04,3.67.68,0,1.22-1.5,1.63-4.49.41-2.31,1.6-5.27,3.57-8.87,1.97-3.6,3.43-5.4,4.38-5.4.68,0,1.29-1.02,1.83-3.06,1.5-5.71,4.55-10.53,9.18-14.48,3.13-2.72,5.1-5.57,5.91-8.56,1.63-5.98,5.71-10.53,12.23-13.66Z"/>
      <path class="cls-2" d="M785.67,329.54c1.36-.68,3.13-1.02,5.3-1.02,4.89,0,8.77.95,11.62,2.85,1.63,1.22,2.99,1.83,4.08,1.83.68,0,1.63-.2,2.85-.61,1.22-.41,2.51-.61,3.87-.61l4.08.61c1.22.41,3.47.61,6.73.61,2.04,0,3.53-.07,4.49-.2,1.09-.13,2.58-.2,4.49-.2,6.39,0,11.42,1.56,15.09,4.69,4.21,3.54,6.32,8.09,6.32,13.66s-2.18,10.2-6.53,13.46c-3.81,2.99-8.9,4.49-15.29,4.49-1.77,0-3.4-.2-4.89-.61-1.63-.41-2.85-.61-3.67-.61-.95,0-2.65.55-5.1,1.63-2.04,1.09-4.08,1.63-6.12,1.63-1.36,0-2.45-.07-3.26-.2-1.09-.13-4.89-.41-11.42-.82l-6.32-.2.2,11.01c.13,4.08.2,7.88.2,11.42l.61-.2c.27-.27.68-.61,1.22-1.02.54-.41,1.09-.88,1.63-1.43,2.45-2.04,5.3-3.53,8.56-4.49,1.76-.54,3.4-.82,4.89-.82,1.36,0,3.26.41,5.71,1.22s4.21,1.22,5.3,1.22,2.45-.41,4.08-1.22c2.58-1.09,5.78-1.63,9.58-1.63s6.59.54,8.77,1.63c2.99,1.5,5.4,3.74,7.24,6.73,1.83,2.99,2.75,6.12,2.75,9.38,0,.95-.14,2.11-.41,3.47-.95,3.13-2.04,5.51-3.26,7.14-1.22,1.63-3.54,3.54-6.93,5.71-2.85,1.91-5.03,3.09-6.52,3.57-1.5.48-3.74.78-6.73.92-4.49.14-7.88.95-10.19,2.45-2.58,1.5-5.78,2.24-9.58,2.24-2.58,0-4.76-.41-6.53-1.22-.41-.27-1.02-.41-1.83-.41-1.22,0-3.06.88-5.51,2.65-3.54,2.72-5.3,5.64-5.3,8.77,0,1.9.34,3.74,1.02,5.51.41.95.88,2.92,1.43,5.91,0,.81.13,1.36.41,1.63.27.27.68.27,1.22,0,.54-.27,1.09-.75,1.63-1.43,1.09-1.22,3.09-2.48,6.01-3.77,2.92-1.29,5.33-1.94,7.24-1.94s4.08.41,6.53,1.22c.68.27,1.56.41,2.65.41,1.63,0,3.4-.34,5.3-1.02,2.31-.81,4.62-1.22,6.93-1.22,4.49,0,8.49,1.29,12.03,3.87,3.53,2.58,5.84,6.05,6.93,10.4.41,1.36.61,2.72.61,4.08,0,5.03-2.01,9.48-6.02,13.36-4.01,3.87-8.74,5.81-14.17,5.81-2.99,0-5.58.75-7.75,2.24-2.58,1.9-6.12,2.85-10.6,2.85-2.18,0-3.87-.27-5.1-.82-.95-.41-1.77-.61-2.45-.61-1.09,0-3.33.88-6.73,2.65-3.81,2.04-7.41,3.06-10.81,3.06-2.31,0-4.69-.54-7.14-1.63-2.58-1.22-4.86-3.09-6.83-5.61-1.97-2.51-3.16-4.92-3.57-7.24-.55-2.85-2.24-5.51-5.1-7.95-5.85-4.76-8.77-10.94-8.77-18.55,0-1.22.07-2.11.2-2.65.41-2.99.61-5.03.61-6.12,0-.95-.41-3.67-1.22-8.16-.41-2.72-.61-4.62-.61-5.71,0-1.63.47-3.6,1.43-5.91,1.22-2.58,1.83-5.1,1.83-7.54,0-.27-.03-.68-.1-1.22-.07-.54-.1-1.02-.1-1.43v-2.24c0-2.72.2-4.69.61-5.91.27-.54.41-1.29.41-2.24,0-1.09-.41-2.38-1.22-3.87-1.36-2.31-2.04-5.23-2.04-8.77,0-3.13.54-5.78,1.63-7.95.81-1.49,1.22-2.65,1.22-3.47,0-.54-.27-1.63-.81-3.26-.41-1.36-.61-2.72-.61-4.08,0-2.72,1.22-6.79,3.67-12.23,3.53-7.61,7.82-11.96,12.85-13.05,1.9-.41,3.26-1.56,4.08-3.47.68-1.49,1.9-3.19,3.67-5.1,1.77-1.9,3.53-3.33,5.3-4.28Z"/>
      <path class="cls-2" d="M877.63,345.03c3.8-4.76,8.63-7.14,14.48-7.14,3.26,0,6.53,1.02,9.79,3.06,2.99,1.9,5.61,4.52,7.85,7.85,2.24,3.33,3.36,6.29,3.36,8.87,0,2.45.88,4.76,2.65,6.93,3.8,5.03,5.71,10.13,5.71,15.29v2.24c0,2.45.27,4.35.82,5.71.13.41.98,3.74,2.55,9.99,1.56,6.25,2.68,9.72,3.37,10.4,1.9,2.31,3.12,5.98,3.67,11.01l.82,5.3,2.24-4.08c1.77-3.13,3.6-5.57,5.51-7.34,2.17-2.17,3.26-4.14,3.26-5.91s.68-4.62,2.04-8.56c1.36-3.94,2.51-6.32,3.47-7.14,1.09-1.09,1.83-2.65,2.24-4.69.54-2.58,1.84-5.44,3.87-8.56,2.04-3.26,3.4-7.07,4.08-11.42.68-5.98,3.47-10.67,8.36-14.07,2.45-1.63,5.98-2.45,10.6-2.45s8.77.89,12.03,2.65c5.71,3.26,8.56,8.23,8.56,14.89,0,3.94-1.02,7.95-3.06,12.03-1.91,3.54-2.85,6.46-2.85,8.77-.14,2.45-.92,5.13-2.35,8.05-1.43,2.92-3.09,5.06-5,6.42-2.18,1.63-3.26,3.6-3.26,5.91s-.61,4.72-1.83,7.24c-1.22,2.52-2.58,4.32-4.08,5.4-1.63.95-2.45,2.92-2.45,5.91,0,6.39-1.7,11.42-5.1,15.09-1.77,2.04-3.2,4.62-4.28,7.75-.68,2.45-2.21,5.03-4.59,7.75-2.38,2.72-5,4.76-7.85,6.12-2.31,1.22-3.47,2.65-3.47,4.28,0,3.13-1.94,6.29-5.81,9.48-3.87,3.19-7.72,4.79-11.52,4.79-4.35,0-8.77-1.9-13.25-5.71-4.49-3.8-7.07-7.88-7.75-12.23-.55-2.85-1.77-5.51-3.67-7.95-2.99-3.8-4.49-7.55-4.49-11.21,0-1.5.2-3.06.61-4.69.41-1.63.61-2.78.61-3.47,0-.82-.81-2.04-2.45-3.67-1.77-1.63-3.33-3.94-4.69-6.93-1.36-2.99-2.11-5.64-2.24-7.95,0-2.31-.61-3.87-1.84-4.69-1.77-1.22-3.3-3.13-4.59-5.71-1.29-2.58-1.94-5.16-1.94-7.75,0-3.13-.68-6.32-2.04-9.58-.68-1.36-1.7-4.89-3.06-10.6-1.36-5.71-2.58-9.31-3.67-10.81-1.5-2.17-2.24-6.25-2.24-12.23,0-3.94.17-6.63.51-8.05.34-1.43,1.12-2.96,2.34-4.59Z"/>
      <path class="cls-2" d="M1050.74,329.54c1.36-.68,3.13-1.02,5.3-1.02,4.89,0,8.77.95,11.62,2.85,1.63,1.22,2.99,1.83,4.08,1.83.68,0,1.63-.2,2.85-.61,1.22-.41,2.51-.61,3.87-.61l4.08.61c1.22.41,3.47.61,6.73.61,2.04,0,3.53-.07,4.49-.2,1.09-.13,2.58-.2,4.49-.2,6.39,0,11.42,1.56,15.09,4.69,4.21,3.54,6.32,8.09,6.32,13.66s-2.18,10.2-6.53,13.46c-3.81,2.99-8.9,4.49-15.29,4.49-1.77,0-3.4-.2-4.89-.61-1.63-.41-2.85-.61-3.67-.61-.95,0-2.65.55-5.1,1.63-2.04,1.09-4.08,1.63-6.12,1.63-1.36,0-2.45-.07-3.26-.2-1.09-.13-4.89-.41-11.42-.82l-6.32-.2.2,11.01c.13,4.08.2,7.88.2,11.42l.61-.2c.27-.27.68-.61,1.22-1.02.54-.41,1.09-.88,1.63-1.43,2.45-2.04,5.3-3.53,8.56-4.49,1.76-.54,3.4-.82,4.89-.82,1.36,0,3.26.41,5.71,1.22s4.21,1.22,5.3,1.22,2.45-.41,4.08-1.22c2.58-1.09,5.78-1.63,9.58-1.63s6.59.54,8.77,1.63c2.99,1.5,5.4,3.74,7.24,6.73,1.83,2.99,2.75,6.12,2.75,9.38,0,.95-.14,2.11-.41,3.47-.95,3.13-2.04,5.51-3.26,7.14-1.22,1.63-3.54,3.54-6.93,5.71-2.85,1.91-5.03,3.09-6.52,3.57-1.5.48-3.74.78-6.73.92-4.49.14-7.88.95-10.19,2.45-2.58,1.5-5.78,2.24-9.58,2.24-2.58,0-4.76-.41-6.53-1.22-.41-.27-1.02-.41-1.83-.41-1.22,0-3.06.88-5.51,2.65-3.54,2.72-5.3,5.64-5.3,8.77,0,1.9.34,3.74,1.02,5.51.41.95.88,2.92,1.43,5.91,0,.81.13,1.36.41,1.63.27.27.68.27,1.22,0,.54-.27,1.09-.75,1.63-1.43,1.09-1.22,3.09-2.48,6.01-3.77,2.92-1.29,5.33-1.94,7.24-1.94s4.08.41,6.53,1.22c.68.27,1.56.41,2.65.41,1.63,0,3.4-.34,5.3-1.02,2.31-.81,4.62-1.22,6.93-1.22,4.49,0,8.49,1.29,12.03,3.87,3.53,2.58,5.84,6.05,6.93,10.4.41,1.36.61,2.72.61,4.08,0,5.03-2.01,9.48-6.02,13.36-4.01,3.87-8.74,5.81-14.17,5.81-2.99,0-5.58.75-7.75,2.24-2.58,1.9-6.12,2.85-10.6,2.85-2.18,0-3.87-.27-5.1-.82-.95-.41-1.77-.61-2.45-.61-1.09,0-3.33.88-6.73,2.65-3.81,2.04-7.41,3.06-10.81,3.06-2.31,0-4.69-.54-7.14-1.63-2.58-1.22-4.86-3.09-6.83-5.61-1.97-2.51-3.16-4.92-3.57-7.24-.55-2.85-2.24-5.51-5.1-7.95-5.85-4.76-8.77-10.94-8.77-18.55,0-1.22.07-2.11.2-2.65.41-2.99.61-5.03.61-6.12,0-.95-.41-3.67-1.22-8.16-.41-2.72-.61-4.62-.61-5.71,0-1.63.47-3.6,1.43-5.91,1.22-2.58,1.83-5.1,1.83-7.54,0-.27-.03-.68-.1-1.22-.07-.54-.1-1.02-.1-1.43v-2.24c0-2.72.2-4.69.61-5.91.27-.54.41-1.29.41-2.24,0-1.09-.41-2.38-1.22-3.87-1.36-2.31-2.04-5.23-2.04-8.77,0-3.13.54-5.78,1.63-7.95.81-1.49,1.22-2.65,1.22-3.47,0-.54-.27-1.63-.81-3.26-.41-1.36-.61-2.72-.61-4.08,0-2.72,1.22-6.79,3.67-12.23,3.53-7.61,7.82-11.96,12.85-13.05,1.9-.41,3.26-1.56,4.08-3.47.68-1.49,1.9-3.19,3.67-5.1,1.77-1.9,3.53-3.33,5.3-4.28Z"/>
      <path class="cls-2" d="M1243.83,348.91c2.04-.68,3.94-1.02,5.71-1.02,6.79,0,12.1,2.79,15.9,8.36,1.63,2.04,2.51,5.85,2.65,11.42.27,5.71.88,9.65,1.83,11.83.95,2.31,1.43,4.56,1.43,6.73,0,2.45-.55,4.83-1.63,7.14-.82,2.04-1.22,3.67-1.22,4.89,0,.95.2,2.45.61,4.49.41,1.63.61,3.26.61,4.89,0,2.99-.95,6.05-2.85,9.18-.68,1.09-1.02,1.9-1.02,2.45,0,.68.54,2.31,1.63,4.89,1.09,2.31,1.63,5.03,1.63,8.16,0,3.81-.95,6.93-2.85,9.38-1.22,1.63-1.84,2.79-1.84,3.47,0,.55.47,1.97,1.43,4.28.82,2.18,1.22,4.56,1.22,7.14,0,3.94-.88,7.07-2.65,9.38-1.5,2.04-2.24,5.3-2.24,9.79,0,6.66-2.58,11.89-7.75,15.7-2.58,1.9-5.58,2.85-8.97,2.85-4.08,0-8.02-1.19-11.83-3.57-3.81-2.38-6.46-5.47-7.95-9.28-1.22-3.13-3.06-5.37-5.51-6.73-5.71-2.99-8.9-7.34-9.58-13.05-.41-2.85-1.22-4.49-2.45-4.89-1.36-.54-3.2-2.17-5.51-4.89-2.31-2.72-4.08-5.44-5.3-8.16-1.63-3.53-3.33-6.18-5.1-7.95-4.08-4.08-6.12-8.22-6.12-12.44,0-1.5-1.29-4.21-3.87-8.16-2.45-3.67-3.67-5.91-3.67-6.73,0-.54-.27-.47-.82.2-.14.14-.2.48-.2,1.02,0,1.22.82,3.26,2.45,6.12,1.77,3.13,2.65,5.71,2.65,7.75,0,1.36-.07,2.52-.2,3.47-.41,3.26-.61,5.51-.61,6.73,0,1.36.2,3.87.61,7.54,0,.41.03.89.1,1.43.07.55.1.95.1,1.22,0,1.91-.48,4.08-1.43,6.53-.82,1.63-1.22,2.72-1.22,3.26s.75,1.97,2.24,4.28c2.31,2.85,3.47,6.53,3.47,11.01,0,4.89-1.36,8.97-4.08,12.23-3.26,4.49-8.56,6.73-15.91,6.73-3.81,0-6.93-.82-9.38-2.45-2.72-1.77-5.24-4.42-7.55-7.95-2.58-3.67-3.87-7.47-3.87-11.42s.34-6.53,1.02-8.16c.54-1.36.82-2.17.82-2.45,0-.95-.41-2.24-1.22-3.87-1.09-2.04-1.63-4.82-1.63-8.36,0-2.99.34-5.17,1.02-6.53.41-.82.61-1.63.61-2.45,0-.95-.41-2.58-1.22-4.89-1.09-2.85-1.63-5.64-1.63-8.36,0-.27.03-.68.1-1.22.07-.54.1-.95.1-1.22,0-.41.03-.92.1-1.53.07-.61.1-1.05.1-1.33,0-2.04-.55-4.28-1.63-6.73-1.09-2.17-1.63-4.69-1.63-7.55,0-3.13.68-6.05,2.04-8.77,1.09-1.76,1.63-3.39,1.63-4.89,0-.27-.27-1.63-.82-4.08-.54-1.63-.81-3.4-.81-5.3,0-3.94,1.49-7.47,4.49-10.6,2.31-2.45,3.67-5.16,4.08-8.16.41-2.72,1.9-5.3,4.49-7.75,1.76-1.63,3.23-2.62,4.38-2.96,1.15-.34,3.7-.51,7.65-.51,5.57,0,9.38.89,11.42,2.65,2.04,1.5,3.87,3.94,5.51,7.34,1.49,3.13,3.19,5.03,5.1,5.71,2.99.95,5.84,2.72,8.56,5.3,2.72,2.58,4.69,5.23,5.91,7.95,1.22,3.13,2.78,5.64,4.69,7.54,3.53,2.85,5.3,7.14,5.3,12.85,0,2.72.82,4.89,2.45,6.52,1.9,2.31,3.94,5.37,6.12,9.18,1.5,2.85,3.16,5.27,5,7.24,1.83,1.97,3.29,2.96,4.38,2.96.27,0,.54-.13.82-.41.68-.68.47-2.52-.61-5.51-.82-2.99-1.22-5.64-1.22-7.95,0-2.58.47-4.89,1.43-6.93.68-1.36,1.02-2.58,1.02-3.67,0-1.22-.34-2.51-1.02-3.87-.82-2.17-1.29-6.63-1.43-13.35-.14-6.73-.27-10.71-.41-11.93-.27-2.45-.41-3.94-.41-4.49,0-1.9.41-3.6,1.22-5.1,1.22-2.31,3.13-4.62,5.71-6.93,2.58-2.31,5.03-3.87,7.34-4.69Z"/>
      <path class="cls-2" d="M1411.64,330.15c2.31-.95,5.37-1.43,9.18-1.43,2.85,0,5.51.34,7.95,1.02,3.53,1.22,6.46,3.43,8.77,6.63,2.31,3.2,3.47,6.7,3.47,10.5,0,1.09-.07,1.9-.2,2.45-.55,3.13-2.58,6.59-6.12,10.4-4.76,5.17-9.93,7.75-15.5,7.75h-2.85c-3.26,0-6.73.68-10.4,2.04-4.22,1.5-7,2.24-8.36,2.24-1.63,0-3.2,1.46-4.69,4.38-1.5,2.92-2.24,5.95-2.24,9.07,0,3.67-.68,6.73-2.04,9.18-.95,1.9-1.43,3.47-1.43,4.69,0,.41.13,1.29.41,2.65.54,1.91.82,4.89.82,8.97v4.89c0,4.76.2,8.7.61,11.83.27,2.45.41,3.87.41,4.28,0,1.63-.55,3.87-1.63,6.73-1.22,2.85-1.83,6.73-1.83,11.62v3.67c.27,7.21.75,12.1,1.43,14.68.41,1.5.61,3.2.61,5.1,0,1.09-.07,1.83-.2,2.24-.68,3.67-2.38,7.27-5.1,10.81-2.72,3.53-5.3,5.64-7.75,6.32-1.5.54-2.24,1.09-2.24,1.63,0,.68-.95,1.02-2.85,1.02-3.26,0-6.39-.68-9.38-2.04-8.02-3.81-12.03-9.86-12.03-18.15,0-.27.03-.71.1-1.33.07-.61.1-1.12.1-1.53.54-4.49.82-8.16.82-11.01,0-1.76-.2-3.87-.61-6.32-.14-.81-.2-1.83-.2-3.06,0-1.63.61-3.94,1.84-6.93,1.49-2.99,2.24-7,2.24-12.03v-3.47c0-6.79-.48-11.01-1.43-12.64-.81-1.63-1.22-4.42-1.22-8.36,0-4.76.47-7.88,1.43-9.38,1.09-1.76,1.63-5.44,1.63-11.01s.13-8.9.41-9.99c.13-.41-.1-.85-.71-1.33-.61-.47-1.53-.99-2.75-1.53-1.22-.54-2.31-.82-3.26-.82s-2.79.95-5.51,2.85c-3.13,2.04-6.19,3.06-9.18,3.06h-3.06c-3.13,0-6.05.68-8.77,2.04-2.99,1.36-6.25,2.04-9.79,2.04-3.81,0-6.93-.68-9.38-2.04-5.71-3.4-8.9-8.9-9.58-16.52-.14-1.09-.2-2.45-.2-4.08,0-2.17.61-4.69,1.84-7.54,3.13-6.39,8.22-9.58,15.29-9.58,1.63,0,3.26.2,4.89.61,1.63.41,2.92.61,3.87.61,1.63,0,3.74-.54,6.32-1.63,3.26-1.22,5.78-1.83,7.54-1.83,1.22,0,2.17.07,2.85.2.82.14,1.77.2,2.85.2,1.63,0,3.4-.75,5.3-2.24,2.85-2.45,6.12-3.67,9.79-3.67,1.76,0,3.19.07,4.28.2.41,0,.88.03,1.43.1.54.07.95.1,1.22.1,2.45,0,5.16-.75,8.16-2.24,2.99-1.63,5.78-2.45,8.36-2.45,1.63,0,3.74.48,6.32,1.43,1.22.55,2.31.82,3.26.82.82,0,2.58-.68,5.3-2.04,2.85-1.5,5.37-2.24,7.55-2.24,1.49,0,2.72.07,3.67.2.68.14,1.76.2,3.26.2,2.85,0,5.17-.34,6.93-1.02Z"/>
    </g>
    <path class="cls-2" d="M1464.3,450.14c.82,5.04,5.35,8.02,9.72,9.82,4.59,1.89,9.48,3.23,14.33,4.29,10.1,2.22,20.57,3.05,30.88,2.17,20.06-1.7,39.43-9.6,53.66-24.08,13.17-13.4,21.77-31.68,21.99-50.62.2-17.85-8.36-39.75-28.37-42.32-7.95-1.02-16.87,1.41-22.12,7.76-3.39,4.11-4.78,9.14-5.12,14.39-.35,5.36-.09,11.26,1.53,16.41,2.99,9.48,11.14,15.02,20.28,17.84s19.81,3.67,29.64,4.04c21.17.8,42.6-2.25,62.7-8.95,19.81-6.6,39.32-16.56,54.81-30.73,14.85-13.59,23.93-31.62,27.29-51.37s1.99-39.84-.49-59.58c-.64-5.08-1.35-10.15-2.08-15.22-.32-2.24-3.16-3.46-5.14-2.92-2.4.66-3.24,2.9-2.92,5.14,4.96,34.18,10.08,73.91-10.45,104.26-10.5,15.52-27.02,26.33-43.63,34.4-17.18,8.34-35.98,13.71-54.97,15.74-9.53,1.02-19.15,1.27-28.72.7-8.72-.51-17.84-1.3-26.1-4.33-3.28-1.21-6.44-2.99-8.85-5.54-2.83-3-4.02-7.04-4.38-11.08-.71-7.88-.64-16.86,6.89-20.9,5.44-2.92,12.72-2.57,18.09.71,6.82,4.16,10.64,11.79,12.45,19.33,3.84,15.98-.88,33.07-9.78,46.52-9.6,14.5-24.32,24.65-41.01,29.29-17.87,4.96-37.11,3.8-54.61-2.09-2.77-.93-6.94-2.01-7.48-5.31-.36-2.23-3.13-3.47-5.14-2.92-2.37.65-3.28,2.9-2.92,5.14h0Z"/>
    <g>
      <path class="cls-2" d="M758.23,547.24h2.73v5.86c0,1.93-.27,3.82-.8,5.68s-1.28,3.61-2.23,5.25c-.95,1.65-2.05,3.1-3.31,4.35-1.26,1.26-2.61,2.25-4.05,2.97l-1.92-2.65c1.31-.64,2.55-1.51,3.71-2.61s2.19-2.35,3.07-3.77,1.57-2.91,2.07-4.49c.49-1.58.74-3.15.74-4.73v-5.86ZM749.81,545.76h20.25v2.77h-20.25v-2.77ZM758.92,547.24h2.69v5.86c0,1.52.25,3.04.74,4.55.49,1.51,1.19,2.93,2.08,4.25s1.93,2.49,3.09,3.51c1.16,1.02,2.41,1.82,3.75,2.41l-1.85,2.65c-1.47-.7-2.85-1.63-4.13-2.81-1.28-1.18-2.4-2.53-3.35-4.07-.95-1.54-1.69-3.2-2.23-4.97-.54-1.78-.8-3.62-.8-5.52v-5.86ZM775,542.03h3.33v36.3h-3.33v-36.3Z"/>
      <path class="cls-2" d="M785.55,557.31h32.89v2.73h-32.89v-2.73ZM789.6,564.97h24.71v12.88h-24.71v-12.88ZM789.72,543.95h23.34v2.73h-23.34v-2.73ZM811.02,567.62h-18.17v7.5h18.17v-7.5ZM810.9,543.95h3.29v2.69c0,1.52-.05,3.21-.16,5.05-.11,1.85-.46,4.04-1.04,6.58l-3.29-.2c.59-2.46.94-4.61,1.04-6.44.11-1.83.16-3.5.16-4.99v-2.69Z"/>
      <path class="cls-2" d="M833.68,571.03h32.89v2.81h-32.89v-2.81ZM836.57,545.52h26.92v2.73h-26.92v-2.73ZM836.65,560.12h26.76v2.65h-26.76v-2.65ZM842.19,547.68h3.33v12.88h-3.33v-12.88ZM848.37,561.64h3.29v10.63h-3.29v-10.63ZM854.54,547.68h3.29v12.88h-3.29v-12.88Z"/>
      <path class="cls-2" d="M870.59,571.07h32.89v2.77h-32.89v-2.77ZM874.6,544.72h24.79v10.99h-21.42v7.26h-3.29v-9.91h21.42v-5.62h-21.5v-2.73ZM874.68,561.56h25.55v2.73h-25.55v-2.73ZM885.31,563.33h3.29v8.9h-3.29v-8.9Z"/>
      <path class="cls-2" d="M907.49,570.27h32.77v2.77h-32.77v-2.77ZM911.06,545.88h23.34v2.73h-23.34v-2.73ZM932.6,545.88h3.29v3.65c0,1.52-.02,3.15-.06,4.87-.04,1.73-.16,3.63-.34,5.72-.19,2.09-.51,4.44-.96,7.06l-3.37-.36c.48-2.46.82-4.72,1.02-6.78.2-2.06.32-3.96.36-5.7.04-1.74.06-3.34.06-4.81v-3.65Z"/>
      <path class="cls-2" d="M952.53,545.08c1.58,0,2.95.51,4.11,1.52,1.16,1.02,2.06,2.47,2.71,4.37.64,1.9.96,4.13.96,6.7s-.32,4.84-.96,6.74c-.64,1.9-1.55,3.36-2.71,4.39-1.16,1.03-2.52,1.54-4.07,1.54s-2.91-.51-4.07-1.54-2.07-2.49-2.71-4.39-.96-4.15-.96-6.74.32-4.8.96-6.7,1.54-3.36,2.71-4.37c1.16-1.02,2.51-1.52,4.03-1.52ZM952.53,548.17c-.94,0-1.75.39-2.45,1.16-.7.78-1.23,1.87-1.6,3.29-.38,1.42-.56,3.1-.56,5.05s.19,3.64.56,5.07c.37,1.43.91,2.53,1.6,3.31.69.78,1.51,1.16,2.45,1.16s1.8-.39,2.51-1.16c.71-.78,1.25-1.88,1.62-3.31.37-1.43.56-3.12.56-5.07s-.19-3.64-.56-5.05c-.38-1.42-.92-2.51-1.62-3.29-.71-.78-1.54-1.16-2.51-1.16ZM959.11,556.15h6.82v2.73h-6.82v-2.73ZM964.81,542.79h3.17v33.69h-3.17v-33.69ZM972.03,542.03h3.21v36.3h-3.21v-36.3Z"/>
      <path class="cls-2" d="M1007.81,545.92h3.25c0,3.45-.56,6.75-1.68,9.89-1.12,3.14-2.89,6.04-5.29,8.7-2.41,2.66-5.58,4.97-9.51,6.92l-1.84-2.57c3.37-1.68,6.17-3.66,8.4-5.92,2.23-2.26,3.9-4.77,5.01-7.54,1.11-2.77,1.66-5.75,1.66-8.96v-.52ZM994.41,545.92h15.08v2.77h-15.08v-2.77ZM1017.07,542.03h3.33v36.26h-3.33v-36.26ZM1019.52,556.75h6.66v2.77h-6.66v-2.77Z"/>
      <path class="cls-2" d="M1039.7,543.75c1.85,0,3.48.36,4.89,1.06,1.42.71,2.53,1.69,3.35,2.95.81,1.26,1.22,2.71,1.22,4.37s-.41,3.08-1.22,4.35c-.82,1.27-1.93,2.25-3.35,2.95-1.42.7-3.05,1.04-4.89,1.04s-3.44-.35-4.87-1.04c-1.43-.69-2.55-1.68-3.37-2.95-.82-1.27-1.22-2.72-1.22-4.35s.41-3.12,1.22-4.37c.81-1.26,1.94-2.24,3.37-2.95,1.43-.71,3.06-1.06,4.87-1.06ZM1039.7,546.56c-1.2,0-2.27.24-3.21.7-.94.47-1.67,1.12-2.21,1.97-.53.84-.8,1.81-.8,2.91s.27,2.03.8,2.87c.54.84,1.27,1.5,2.21,1.98.94.48,2.01.72,3.21.72s2.27-.24,3.21-.72c.94-.48,1.67-1.14,2.21-1.98s.8-1.8.8-2.87-.27-2.07-.8-2.91-1.27-1.5-2.21-1.97c-.94-.47-2-.7-3.21-.7ZM1035.8,563.33h3.25v4.37h16.81v-4.37h3.29v14.52h-23.35v-14.52ZM1039.05,570.35v4.77h16.81v-4.77h-16.81ZM1055.82,542.03h3.33v19.49h-3.33v-19.49Z"/>
      <path class="cls-2" d="M1066.13,547.84h21.38v2.73h-21.38v-2.73ZM1077,553.54c1.71,0,3.23.36,4.55,1.08,1.32.72,2.37,1.71,3.13,2.95.76,1.24,1.14,2.68,1.14,4.31s-.38,3.07-1.14,4.33-1.81,2.24-3.13,2.95-2.84,1.06-4.55,1.06-3.23-.35-4.55-1.06-2.37-1.69-3.15-2.95-1.16-2.7-1.16-4.33.39-3.07,1.16-4.31c.78-1.24,1.83-2.23,3.15-2.95,1.32-.72,2.84-1.08,4.55-1.08ZM1077,556.31c-1.1,0-2.07.24-2.93.72-.86.48-1.53,1.14-2.03,1.97s-.74,1.79-.74,2.89.25,2.06.74,2.91,1.17,1.5,2.03,1.97c.86.47,1.82.7,2.89.7s2.07-.24,2.93-.7c.86-.47,1.53-1.12,2.03-1.97.49-.84.74-1.81.74-2.91s-.25-2.06-.74-2.89c-.5-.83-1.17-1.48-2.03-1.97-.86-.48-1.82-.72-2.89-.72ZM1075.27,542.47h3.33v6.58h-3.33v-6.58ZM1090.92,542.03h3.29v36.3h-3.29v-36.3ZM1093.44,556.95h6.7v2.81h-6.7v-2.81Z"/>
      <path class="cls-2" d="M1104.92,545.2h16.53v16.97h-16.53v-16.97ZM1118.19,547.88h-10.03v11.63h10.03v-11.63ZM1109.77,566.17h3.33v9.87h-3.33v-9.87ZM1109.77,574.8h24.15v2.73h-24.15v-2.73ZM1120.64,548.41h10.11v2.77h-10.11v-2.77ZM1120.64,556.19h10.19v2.73h-10.19v-2.73ZM1129.75,542.07h3.33v26.47h-3.33v-26.47Z"/>
      <path class="cls-2" d="M1151.37,570.91h32.89v2.81h-32.89v-2.81ZM1165.89,544.43h2.93v2.77c0,1.52-.28,2.96-.84,4.31-.56,1.35-1.32,2.6-2.27,3.75-.95,1.15-2.06,2.17-3.33,3.07s-2.62,1.66-4.05,2.28c-1.43.63-2.9,1.09-4.39,1.38l-1.36-2.77c1.28-.21,2.57-.58,3.85-1.1,1.28-.52,2.49-1.16,3.63-1.93,1.14-.76,2.14-1.62,3.01-2.57.87-.95,1.56-1.97,2.06-3.05.51-1.08.76-2.21.76-3.39v-2.77ZM1160.31,562.77h3.29v9.71h-3.29v-9.71ZM1166.49,544.43h2.89v2.77c0,1.18.25,2.31.76,3.41s1.2,2.12,2.09,3.07c.88.95,1.9,1.81,3.05,2.57,1.15.76,2.37,1.4,3.65,1.9,1.28.51,2.57.87,3.85,1.08l-1.4,2.77c-1.47-.29-2.93-.75-4.37-1.38-1.44-.63-2.79-1.39-4.05-2.28-1.26-.9-2.37-1.92-3.35-3.07-.98-1.15-1.74-2.4-2.29-3.75-.55-1.35-.82-2.79-.82-4.31v-2.77ZM1171.98,562.77h3.29v9.71h-3.29v-9.71Z"/>
      <path class="cls-2" d="M1189.27,561.68l-.4-2.77c2.09,0,4.39-.03,6.92-.08s5.11-.15,7.74-.3c2.63-.15,5.15-.37,7.56-.66l.24,2.49c-2.46.4-5,.7-7.62.88-2.62.19-5.18.31-7.66.36-2.49.06-4.75.08-6.78.08ZM1189.87,545.16h19.49v2.73h-19.49v-2.73ZM1193.44,547.08h3.21v13.12h-3.21v-13.12ZM1206.04,565.09c3.8,0,6.78.57,8.94,1.7,2.17,1.14,3.25,2.75,3.25,4.83s-1.08,3.71-3.25,4.87c-2.17,1.16-5.15,1.75-8.94,1.75s-6.74-.58-8.9-1.75c-2.17-1.16-3.25-2.79-3.25-4.87s1.08-3.7,3.25-4.83c2.17-1.14,5.13-1.7,8.9-1.7ZM1206.08,567.7c-1.85,0-3.44.16-4.77.46s-2.36.76-3.07,1.34c-.71.59-1.06,1.3-1.06,2.13s.35,1.58,1.06,2.17c.71.59,1.73,1.04,3.07,1.36,1.34.32,2.93.48,4.77.48s3.39-.16,4.71-.48c1.32-.32,2.34-.78,3.05-1.36.71-.59,1.06-1.31,1.06-2.17s-.35-1.54-1.06-2.13c-.71-.59-1.73-1.04-3.05-1.34s-2.89-.46-4.71-.46ZM1202.55,547.08h3.25v13.12h-3.25v-13.12ZM1214.66,542.07h3.33v22.22h-3.33v-22.22Z"/>
      <path class="cls-2" d="M1225.17,557.83h32.77v2.73h-32.77v-2.73ZM1229.14,563.53h24.59v8.18h-21.26v4.41h-3.25v-6.86h21.26v-3.17h-21.34v-2.57ZM1229.22,575.32h25.59v2.61h-25.59v-2.61ZM1229.42,543.23h24.27v11.07h-24.27v-11.07ZM1250.4,545.88h-17.73v5.78h17.73v-5.78ZM1239.85,553.22h3.29v5.54h-3.29v-5.54Z"/>
      <path class="cls-2" d="M1273.3,559.96h32.77v2.77h-32.77v-2.77ZM1277.39,544.39h22.7v2.69h-22.7v-2.69ZM1287.94,561.8h3.33v16.57h-3.33v-16.57ZM1298.49,544.39h3.29v3.17c0,1.26-.02,2.58-.06,3.97-.04,1.39-.16,2.92-.34,4.59-.19,1.67-.51,3.52-.96,5.56l-3.33-.44c.72-2.91,1.14-5.47,1.24-7.66.11-2.19.16-4.2.16-6.02v-3.17Z"/>
      <path class="cls-2" d="M1311.49,546.24h13.84v22.34h-13.84v-22.34ZM1322.2,548.89h-7.58v17.05h7.58v-17.05ZM1329.78,542.79h3.17v33.69h-3.17v-33.69ZM1332.07,556.39h6.98v2.77h-6.98v-2.77ZM1337.84,542.03h3.21v36.3h-3.21v-36.3Z"/>
      <path class="cls-2" d="M1367.89,545.16h2.77v6.5c0,2.09-.26,4.11-.78,6.08-.52,1.97-1.26,3.8-2.21,5.5-.95,1.7-2.06,3.2-3.33,4.49-1.27,1.3-2.65,2.32-4.15,3.07l-2.05-2.77c1.36-.62,2.63-1.5,3.81-2.65,1.18-1.15,2.21-2.45,3.09-3.91.88-1.46,1.58-3.03,2.09-4.71s.76-3.38.76-5.09v-6.5ZM1368.45,545.16h2.77v6.5c0,1.66.25,3.29.74,4.89s1.19,3.12,2.09,4.55c.9,1.43,1.93,2.69,3.09,3.77,1.16,1.08,2.41,1.93,3.75,2.55l-2.01,2.65c-1.47-.7-2.84-1.67-4.09-2.93s-2.36-2.7-3.31-4.33c-.95-1.63-1.69-3.4-2.23-5.29-.53-1.9-.8-3.85-.8-5.86v-6.5ZM1384.69,542.03h3.33v36.34h-3.33v-36.34Z"/>
      <path class="cls-2" d="M1415.34,545.16h2.73v6.5c0,2-.25,3.97-.74,5.9-.5,1.93-1.2,3.73-2.11,5.42s-1.98,3.18-3.21,4.49-2.57,2.35-4.01,3.13l-2.05-2.69c1.34-.67,2.57-1.57,3.71-2.71s2.13-2.44,2.99-3.91c.86-1.47,1.52-3.03,1.98-4.67.47-1.65.7-3.3.7-4.95v-6.5ZM1415.94,545.16h2.69v6.5c0,1.6.24,3.2.7,4.77.47,1.58,1.13,3.06,1.99,4.45.86,1.39,1.84,2.63,2.95,3.73s2.31,1.97,3.59,2.61l-2.05,2.65c-1.42-.72-2.72-1.71-3.91-2.97s-2.23-2.69-3.13-4.31c-.9-1.62-1.59-3.36-2.09-5.21s-.74-3.76-.74-5.72v-6.5ZM1431.02,542.03h3.33v36.3h-3.33v-36.3ZM1433.59,556.71h6.7v2.85h-6.7v-2.85Z"/>
      <path class="cls-2" d="M1443.37,561.12h32.77v2.69h-32.77v-2.69ZM1459.74,543.27c2.59,0,4.85.29,6.76.86,1.91.57,3.39,1.4,4.43,2.49,1.04,1.08,1.56,2.37,1.56,3.87s-.52,2.79-1.56,3.89c-1.04,1.1-2.52,1.93-4.43,2.51-1.91.57-4.17.86-6.76.86s-4.85-.29-6.76-.86c-1.91-.57-3.39-1.41-4.43-2.51s-1.56-2.39-1.56-3.89.52-2.79,1.56-3.87c1.04-1.08,2.52-1.91,4.43-2.49,1.91-.57,4.16-.86,6.76-.86ZM1447.59,567.02h3.33v8.59h-3.33v-8.59ZM1447.59,574.8h24.91v2.73h-24.91v-2.73ZM1459.74,545.96c-1.87,0-3.51.18-4.91.54-1.4.36-2.49.88-3.27,1.56s-1.16,1.49-1.16,2.43.39,1.74,1.16,2.43,1.87,1.2,3.27,1.56c1.4.36,3.04.54,4.91.54s3.58-.18,4.97-.54,2.47-.88,3.23-1.56,1.14-1.49,1.14-2.43-.38-1.74-1.14-2.43-1.84-1.2-3.23-1.56c-1.39-.36-3.05-.54-4.97-.54Z"/>
      <path class="cls-2" d="M1480.28,559.56h32.77v2.69h-32.77v-2.69ZM1483.33,543.19h26.59v2.73h-26.59v-2.73ZM1483.45,553.46h26.35v2.73h-26.35v-2.73ZM1484.29,566.5h24.75v11.35h-24.75v-11.35ZM1505.79,569.14h-18.25v5.98h18.25v-5.98ZM1488.78,544.39h3.33v10.87h-3.33v-10.87ZM1495,561.32h3.29v6.26h-3.29v-6.26ZM1501.13,544.39h3.33v10.87h-3.33v-10.87Z"/>
      <path class="cls-2" d="M1528.41,559.28h32.77v2.73h-32.77v-2.73ZM1542.65,545.32h2.93v1.08c0,1.18-.25,2.27-.74,3.27-.5,1-1.18,1.92-2.07,2.75s-1.92,1.56-3.11,2.21-2.48,1.17-3.87,1.58c-1.39.41-2.85.72-4.37.9l-1.2-2.65c1.31-.13,2.57-.37,3.79-.72,1.22-.35,2.35-.77,3.41-1.26,1.06-.49,1.97-1.06,2.75-1.68.78-.63,1.38-1.31,1.82-2.05.44-.74.66-1.52.66-2.35v-1.08ZM1531.42,543.87h26.79v2.73h-26.79v-2.73ZM1544.78,565.13c3.88,0,6.91.58,9.11,1.73,2.19,1.15,3.29,2.77,3.29,4.85s-1.1,3.7-3.29,4.83c-2.19,1.14-5.23,1.71-9.11,1.71s-6.92-.57-9.13-1.71c-2.21-1.14-3.31-2.75-3.31-4.83s1.1-3.7,3.31-4.85c2.21-1.15,5.25-1.73,9.13-1.73ZM1544.78,567.78c-1.9,0-3.52.15-4.87.44-1.35.29-2.39.73-3.11,1.32-.72.59-1.08,1.31-1.08,2.17s.36,1.53,1.08,2.11c.72.57,1.76,1.02,3.11,1.32,1.35.31,2.97.46,4.87.46s3.52-.16,4.87-.46c1.35-.31,2.39-.75,3.11-1.32.72-.57,1.08-1.28,1.08-2.11s-.36-1.58-1.08-2.17c-.72-.59-1.76-1.03-3.11-1.32-1.35-.3-2.98-.44-4.87-.44ZM1544.01,545.32h2.93v1.08c0,.83.22,1.61.66,2.35.44.74,1.05,1.42,1.83,2.07.78.64,1.69,1.21,2.75,1.7s2.19.91,3.41,1.24c1.22.33,2.48.57,3.79.7l-1.2,2.65c-1.52-.19-2.98-.49-4.37-.9s-2.68-.94-3.87-1.58-2.23-1.38-3.11-2.21c-.88-.83-1.57-1.75-2.06-2.77-.5-1.02-.74-2.1-.74-3.25v-1.08Z"/>
      <path class="cls-2" d="M1574.54,545.72h2.73v2.93c0,2.22-.42,4.3-1.26,6.24s-2.03,3.64-3.55,5.09-3.29,2.57-5.29,3.35l-1.72-2.65c1.36-.48,2.6-1.14,3.71-1.97,1.11-.83,2.07-1.78,2.89-2.85.82-1.07,1.44-2.22,1.87-3.45.43-1.23.64-2.49.64-3.77v-2.93ZM1566.48,544.67h19.37v2.73h-19.37v-2.73ZM1583.2,564.77c2.51,0,4.67.27,6.48.8,1.81.53,3.19,1.3,4.15,2.31.96,1,1.44,2.23,1.44,3.67,0,2.14-1.08,3.8-3.23,4.97-2.15,1.18-5.1,1.76-8.84,1.76s-6.69-.59-8.84-1.76c-2.15-1.18-3.23-2.84-3.23-4.97,0-1.44.49-2.67,1.46-3.67.98-1,2.37-1.77,4.17-2.31,1.81-.54,3.95-.8,6.44-.8ZM1583.2,567.38c-1.82,0-3.38.16-4.69.48-1.31.32-2.32.79-3.03,1.41s-1.06,1.38-1.06,2.28c0,.86.35,1.59,1.06,2.21s1.72,1.09,3.03,1.42c1.31.33,2.87.5,4.69.5s3.41-.17,4.71-.5c1.3-.33,2.3-.81,3.01-1.42.71-.62,1.06-1.35,1.06-2.21,0-.91-.36-1.67-1.06-2.28-.71-.62-1.71-1.08-3.01-1.41-1.3-.32-2.87-.48-4.71-.48ZM1575.18,545.72h2.73v2.89c0,1.55.36,3.06,1.08,4.53.72,1.47,1.75,2.77,3.09,3.89,1.34,1.12,2.87,2.01,4.61,2.65l-1.68,2.65c-1.98-.72-3.7-1.77-5.18-3.15-1.47-1.38-2.61-2.98-3.43-4.79s-1.22-3.74-1.22-5.78v-2.89ZM1584.69,551.45h8.14v2.77h-8.14v-2.77ZM1591.83,542.03h3.33v21.62h-3.33v-21.62Z"/>
    </g>
  </g>
</svg>